<svg xmlns="http://www.w3.org/2000/svg" viewBox="0 0 820 320" font-family="Segoe UI, Arial, sans-serif">
  <defs>
    <filter id="shadow" x="-3%" y="-3%" width="106%" height="110%">
      <feDropShadow dx="1" dy="2" stdDeviation="3" flood-color="#00000018"/>
    </filter>
    <marker id="arrow" viewBox="0 0 10 10" refX="9" refY="5" markerWidth="8" markerHeight="8" orient="auto-start-auto">
      <path d="M 0 0 L 10 5 L 0 10 z" fill="#0078d4"/>
    </marker>
    <marker id="arrowG" viewBox="0 0 10 10" refX="9" refY="5" markerWidth="8" markerHeight="8" orient="auto-start-auto">
      <path d="M 0 0 L 10 5 L 0 10 z" fill="#2e7d32"/>
    </marker>
  </defs>

  <rect width="820" height="320" rx="12" fill="#f9fafb"/>
  <text x="410" y="28" text-anchor="middle" fill="#333" font-size="16" font-weight="700">DNS Resolution Chain: Hub Resolvers</text>
  <text x="410" y="46" text-anchor="middle" fill="#888" font-size="11">Zones link to hubs, spokes resolve through hubs. Create zones once, works everywhere.</text>

  <!-- App in Spoke -->
  <g filter="url(#shadow)">
    <rect x="30" y="75" width="140" height="60" rx="8" fill="#fff" stroke="#0078d4" stroke-width="1.5"/>
    <text x="100" y="100" text-anchor="middle" fill="#0078d4" font-size="12" font-weight="700">App in Spoke</text>
    <text x="100" y="118" text-anchor="middle" fill="#888" font-size="9">mydb.postgres...</text>
  </g>

  <!-- Arrow -->
  <line x1="175" y1="105" x2="215" y2="105" stroke="#0078d4" stroke-width="2" marker-end="url(#arrow)"/>
  <text x="195" y="97" text-anchor="middle" fill="#0078d4" font-size="8">DNS query</text>

  <!-- Azure DNS -->
  <g filter="url(#shadow)">
    <rect x="220" y="75" width="130" height="60" rx="8" fill="#f5f5f5" stroke="#5c5c5c" stroke-width="1.2"/>
    <text x="285" y="100" text-anchor="middle" fill="#333" font-size="11" font-weight="600">Azure DNS</text>
    <text x="285" y="118" text-anchor="middle" fill="#888" font-size="9">Default resolver</text>
  </g>

  <!-- Arrow -->
  <line x1="355" y1="105" x2="395" y2="105" stroke="#0078d4" stroke-width="2" marker-end="url(#arrow)"/>
  <text x="375" y="97" text-anchor="middle" fill="#0078d4" font-size="8">forward</text>

  <!-- Hub DNS Resolver -->
  <g filter="url(#shadow)">
    <rect x="400" y="65" width="170" height="80" rx="10" fill="#e8f4fd" stroke="#0078d4" stroke-width="2"/>
    <rect x="400" y="65" width="170" height="30" rx="10" fill="#0078d4"/>
    <rect x="400" y="81" width="170" height="14" fill="#0078d4"/>
    <text x="485" y="85" text-anchor="middle" fill="#fff" font-size="11" font-weight="700">Hub DNS Resolver</text>
  </g>
  <text x="485" y="112" text-anchor="middle" fill="#333" font-size="10">Inbound endpoint</text>
  <text x="485" y="128" text-anchor="middle" fill="#888" font-size="9">Checks linked zones</text>

  <!-- Arrow to DNS Zone -->
  <line x1="575" y1="105" x2="615" y2="105" stroke="#0078d4" stroke-width="2" marker-end="url(#arrow)"/>

  <!-- Private DNS Zone -->
  <g filter="url(#shadow)">
    <rect x="620" y="65" width="175" height="80" rx="10" fill="#f0f7f0" stroke="#2e7d32" stroke-width="1.5"/>
    <rect x="620" y="65" width="175" height="30" rx="10" fill="#2e7d32"/>
    <rect x="620" y="81" width="175" height="14" fill="#2e7d32"/>
    <text x="708" y="85" text-anchor="middle" fill="#fff" font-size="10" font-weight="700">Private DNS Zone</text>
  </g>
  <text x="708" y="112" text-anchor="middle" fill="#333" font-size="9">privatelink.postgres</text>
  <text x="708" y="126" text-anchor="middle" fill="#333" font-size="9">.database.azure.com</text>
  <text x="708" y="140" text-anchor="middle" fill="#2e7d32" font-size="10" font-weight="600">&#8594; 10.20.4.5</text>

  <!-- Return arrow -->
  <line x1="708" y1="150" x2="708" y2="175" stroke="#2e7d32" stroke-width="1.5"/>
  <line x1="708" y1="175" x2="100" y2="175" stroke="#2e7d32" stroke-width="1.5" marker-end="url(#arrowG)"/>
  <text x="400" y="170" text-anchor="middle" fill="#2e7d32" font-size="10" font-weight="600">Private IP returned: 10.20.4.5</text>

  <!-- Bottom: Key insight -->
  <rect x="30" y="205" width="760" height="96" rx="10" fill="#fff" stroke="#e0e0e0" stroke-width="1"/>
  <text x="410" y="228" text-anchor="middle" fill="#333" font-size="12" font-weight="700">Why this works at scale</text>

  <rect x="50" y="240" width="220" height="46" rx="6" fill="#f0f7f0" stroke="#c8e6c9" stroke-width="1"/>
  <text x="160" y="258" text-anchor="middle" fill="#2e7d32" font-size="10" font-weight="600">Zones link to hub VNets</text>
  <text x="160" y="274" text-anchor="middle" fill="#888" font-size="9">Create 25 zones once, link to 3 hubs</text>

  <rect x="290" y="240" width="220" height="46" rx="6" fill="#e8f4fd" stroke="#0078d4" stroke-width="1"/>
  <text x="400" y="258" text-anchor="middle" fill="#0078d4" font-size="10" font-weight="600">Spokes resolve via hub</text>
  <text x="400" y="274" text-anchor="middle" fill="#888" font-size="9">No per-spoke DNS config needed</text>

  <rect x="530" y="240" width="240" height="46" rx="6" fill="#fff8e8" stroke="#e65100" stroke-width="1"/>
  <text x="650" y="258" text-anchor="middle" fill="#e65100" font-size="10" font-weight="600">New hub? Auto-discovered</text>
  <text x="650" y="274" text-anchor="middle" fill="#888" font-size="9">DNS module finds hubs by naming pattern</text>
</svg>
