<svg xmlns="http://www.w3.org/2000/svg" viewBox="0 0 1020 680" font-family="Segoe UI, Arial, sans-serif">
  <defs>
    <linearGradient id="hubGrad" x1="0%" y1="0%" x2="0%" y2="100%">
      <stop offset="0%" style="stop-color:#e8f4fd" />
      <stop offset="100%" style="stop-color:#d0e8f9" />
    </linearGradient>
    <filter id="shadow" x="-3%" y="-3%" width="106%" height="110%">
      <feDropShadow dx="1" dy="2" stdDeviation="3" flood-color="#00000018"/>
    </filter>
    <filter id="shadowSm" x="-5%" y="-5%" width="110%" height="115%">
      <feDropShadow dx="0.5" dy="1" stdDeviation="1.5" flood-color="#00000014"/>
    </filter>
  </defs>

  <!-- Background -->
  <rect width="1020" height="680" rx="12" fill="#f9fafb"/>

  <!-- Title -->
  <text x="510" y="32" text-anchor="middle" fill="#333" font-size="18" font-weight="700">Hub-and-Spoke with Geographic Zones</text>
  <text x="510" y="52" text-anchor="middle" fill="#888" font-size="12">Each zone is isolated, same CIDRs, no cross-zone peering · Shown: one environment per zone, multiply by 3 for dev / stg / prd</text>

  <!-- ===== ZONE BACKGROUNDS ===== -->
  <rect x="16" y="70" width="316" height="540" rx="12" fill="#f0f7f0" stroke="#c8e6c9" stroke-width="1" stroke-dasharray="6,3"/>
  <rect x="352" y="70" width="316" height="540" rx="12" fill="#fef0f0" stroke="#ffcdd2" stroke-width="1" stroke-dasharray="6,3"/>
  <rect x="688" y="70" width="316" height="540" rx="12" fill="#fff8e8" stroke="#ffe0b2" stroke-width="1" stroke-dasharray="6,3"/>

  <!-- Zone labels -->
  <text x="174" y="96" text-anchor="middle" fill="#2e7d32" font-size="13" font-weight="700">EUROPE ZONE</text>
  <text x="174" y="112" text-anchor="middle" fill="#4caf50" font-size="10">GDPR · Data stays in EU</text>
  <text x="510" y="96" text-anchor="middle" fill="#c62828" font-size="13" font-weight="700">AMERICAS ZONE</text>
  <text x="510" y="112" text-anchor="middle" fill="#e57373" font-size="10">US Data Sovereignty</text>
  <text x="846" y="96" text-anchor="middle" fill="#e65100" font-size="13" font-weight="700">APAC ZONE</text>
  <text x="846" y="112" text-anchor="middle" fill="#ff9800" font-size="10">APAC Data Residency</text>

  <!-- ===== EU HUB ===== -->
  <g filter="url(#shadow)">
    <rect x="40" y="128" width="268" height="170" rx="10" fill="url(#hubGrad)" stroke="#0078d4" stroke-width="1.5"/>
    <rect x="40" y="128" width="268" height="38" rx="10" fill="#0078d4"/>
    <rect x="40" y="148" width="268" height="18" fill="#0078d4"/>
    <text x="174" y="148" text-anchor="middle" fill="#fff" font-size="14" font-weight="700">Hub VNet</text>
    <text x="174" y="161" text-anchor="middle" fill="#c8e1f5" font-size="10">West Europe · 10.0.0.0/16</text>
  </g>
  <text x="64" y="188" fill="#1a1a1a" font-size="11">VPN Gateway</text>
  <text x="200" y="188" fill="#e06000" font-size="10" font-weight="600">S2S active</text>
  <text x="64" y="206" fill="#1a1a1a" font-size="11">DNS Resolver</text>
  <text x="200" y="206" fill="#888" font-size="10">in + out</text>
  <text x="64" y="224" fill="#1a1a1a" font-size="11">Azure Firewall</text>
  <text x="200" y="224" fill="#888" font-size="10">Standard</text>
  <line x1="60" y1="236" x2="288" y2="236" stroke="#c0d8ea" stroke-width="0.8"/>
  <text x="64" y="254" fill="#888" font-size="10">GatewaySubnet · FirewallSubnet</text>
  <text x="64" y="268" fill="#888" font-size="10">DNS In · DNS Out · FW Mgmt</text>

  <!-- ===== US HUB ===== -->
  <g filter="url(#shadow)">
    <rect x="376" y="128" width="268" height="170" rx="10" fill="url(#hubGrad)" stroke="#0078d4" stroke-width="1.5"/>
    <rect x="376" y="128" width="268" height="38" rx="10" fill="#0078d4"/>
    <rect x="376" y="148" width="268" height="18" fill="#0078d4"/>
    <text x="510" y="148" text-anchor="middle" fill="#fff" font-size="14" font-weight="700">Hub VNet</text>
    <text x="510" y="161" text-anchor="middle" fill="#c8e1f5" font-size="10">East US · 10.0.0.0/16</text>
  </g>
  <text x="400" y="188" fill="#1a1a1a" font-size="11">VPN Gateway</text>
  <text x="536" y="188" fill="#e06000" font-size="10" font-weight="600">S2S active</text>
  <text x="400" y="206" fill="#1a1a1a" font-size="11">DNS Resolver</text>
  <text x="536" y="206" fill="#888" font-size="10">in + out</text>
  <text x="400" y="224" fill="#1a1a1a" font-size="11">Azure Firewall</text>
  <text x="536" y="224" fill="#888" font-size="10">Standard</text>
  <line x1="396" y1="236" x2="624" y2="236" stroke="#c0d8ea" stroke-width="0.8"/>
  <text x="400" y="254" fill="#888" font-size="10">GatewaySubnet · FirewallSubnet</text>
  <text x="400" y="268" fill="#888" font-size="10">DNS In · DNS Out · FW Mgmt</text>

  <!-- ===== APAC HUB ===== -->
  <g filter="url(#shadow)">
    <rect x="712" y="128" width="268" height="170" rx="10" fill="url(#hubGrad)" stroke="#0078d4" stroke-width="1.5"/>
    <rect x="712" y="128" width="268" height="38" rx="10" fill="#0078d4"/>
    <rect x="712" y="148" width="268" height="18" fill="#0078d4"/>
    <text x="846" y="148" text-anchor="middle" fill="#fff" font-size="14" font-weight="700">Hub VNet</text>
    <text x="846" y="161" text-anchor="middle" fill="#c8e1f5" font-size="10">Australia East · 10.0.0.0/16</text>
  </g>
  <text x="736" y="188" fill="#1a1a1a" font-size="11">VPN Gateway</text>
  <text x="872" y="188" fill="#e06000" font-size="10" font-weight="600">S2S active</text>
  <text x="736" y="206" fill="#1a1a1a" font-size="11">DNS Resolver</text>
  <text x="872" y="206" fill="#888" font-size="10">in + out</text>
  <text x="736" y="224" fill="#1a1a1a" font-size="11">Azure Firewall</text>
  <text x="872" y="224" fill="#888" font-size="10">Standard</text>
  <line x1="732" y1="236" x2="960" y2="236" stroke="#c0d8ea" stroke-width="0.8"/>
  <text x="736" y="254" fill="#888" font-size="10">GatewaySubnet · FirewallSubnet</text>
  <text x="736" y="268" fill="#888" font-size="10">DNS In · DNS Out · FW Mgmt</text>

  <!-- ===== NO CROSS-ZONE MARKERS ===== -->
  <text x="340" y="216" fill="#d32f2f" font-size="20" font-weight="700">✕</text>
  <text x="335" y="232" fill="#d32f2f" font-size="8">no peering</text>
  <text x="676" y="216" fill="#d32f2f" font-size="20" font-weight="700">✕</text>
  <text x="671" y="232" fill="#d32f2f" font-size="8">no peering</text>

  <!-- ===== SPOKE CONNECTORS ===== -->
  <!-- EU -->
  <line x1="174" y1="298" x2="174" y2="340" stroke="#5c5c5c" stroke-width="1.5"/>
  <line x1="84" y1="340" x2="264" y2="340" stroke="#5c5c5c" stroke-width="1.5"/>
  <line x1="84" y1="340" x2="84" y2="358" stroke="#5c5c5c" stroke-width="1.2"/>
  <line x1="174" y1="340" x2="174" y2="358" stroke="#5c5c5c" stroke-width="1.2"/>
  <line x1="264" y1="340" x2="264" y2="358" stroke="#5c5c5c" stroke-width="1.2"/>

  <!-- US -->
  <line x1="510" y1="298" x2="510" y2="340" stroke="#5c5c5c" stroke-width="1.5"/>
  <line x1="420" y1="340" x2="600" y2="340" stroke="#5c5c5c" stroke-width="1.5"/>
  <line x1="420" y1="340" x2="420" y2="358" stroke="#5c5c5c" stroke-width="1.2"/>
  <line x1="510" y1="340" x2="510" y2="358" stroke="#5c5c5c" stroke-width="1.2"/>
  <line x1="600" y1="340" x2="600" y2="358" stroke="#5c5c5c" stroke-width="1.2"/>

  <!-- APAC -->
  <line x1="846" y1="298" x2="846" y2="340" stroke="#5c5c5c" stroke-width="1.5"/>
  <line x1="756" y1="340" x2="936" y2="340" stroke="#5c5c5c" stroke-width="1.5"/>
  <line x1="756" y1="340" x2="756" y2="358" stroke="#5c5c5c" stroke-width="1.2"/>
  <line x1="846" y1="340" x2="846" y2="358" stroke="#5c5c5c" stroke-width="1.2"/>
  <line x1="936" y1="340" x2="936" y2="358" stroke="#5c5c5c" stroke-width="1.2"/>

  <!-- ===== EU SPOKES ===== -->
  <g filter="url(#shadowSm)">
    <rect x="40" y="360" width="88" height="76" rx="8" fill="#fff" stroke="#5c5c5c" stroke-width="1.2"/>
    <text x="84" y="382" text-anchor="middle" fill="#0078d4" font-size="13" font-weight="700">Spoke 1</text>
    <text x="84" y="397" text-anchor="middle" fill="#777" font-size="10">Primary</text>
    <text x="84" y="412" text-anchor="middle" fill="#aaa" font-size="9">West Europe</text>
    <text x="84" y="428" text-anchor="middle" fill="#bbb" font-size="8">CAE · DB · PEP</text>
  </g>
  <g filter="url(#shadowSm)">
    <rect x="136" y="360" width="88" height="76" rx="8" fill="#fff" stroke="#5c5c5c" stroke-width="1.2"/>
    <text x="180" y="382" text-anchor="middle" fill="#0078d4" font-size="13" font-weight="700">Spoke 2</text>
    <text x="180" y="397" text-anchor="middle" fill="#777" font-size="10">DR</text>
    <text x="180" y="412" text-anchor="middle" fill="#aaa" font-size="9">North Europe</text>
    <text x="180" y="428" text-anchor="middle" fill="#bbb" font-size="8">CAE · DB · PEP</text>
  </g>
  <g filter="url(#shadowSm)">
    <rect x="232" y="360" width="88" height="76" rx="8" fill="#fff" stroke="#5c5c5c" stroke-width="1.2"/>
    <text x="276" y="382" text-anchor="middle" fill="#0078d4" font-size="13" font-weight="700">Spoke 3</text>
    <text x="276" y="397" text-anchor="middle" fill="#777" font-size="10">GPU</text>
    <text x="276" y="412" text-anchor="middle" fill="#aaa" font-size="9">Sweden Central</text>
    <text x="276" y="428" text-anchor="middle" fill="#bbb" font-size="8">CAE · DB · PEP</text>
  </g>

  <!-- EU mesh -->
  <line x1="84" y1="440" x2="276" y2="440" stroke="#0078d4" stroke-width="1" stroke-dasharray="4,3"/>
  <text x="174" y="456" text-anchor="middle" fill="#0078d4" font-size="9">mesh: all spokes peer directly</text>

  <!-- ===== US SPOKES ===== -->
  <g filter="url(#shadowSm)">
    <rect x="376" y="360" width="88" height="76" rx="8" fill="#fff" stroke="#5c5c5c" stroke-width="1.2"/>
    <text x="420" y="382" text-anchor="middle" fill="#0078d4" font-size="13" font-weight="700">Spoke 1</text>
    <text x="420" y="397" text-anchor="middle" fill="#777" font-size="10">Primary</text>
    <text x="420" y="412" text-anchor="middle" fill="#aaa" font-size="9">East US</text>
    <text x="420" y="428" text-anchor="middle" fill="#bbb" font-size="8">CAE · DB · PEP</text>
  </g>
  <g filter="url(#shadowSm)">
    <rect x="472" y="360" width="88" height="76" rx="8" fill="#fff" stroke="#5c5c5c" stroke-width="1.2"/>
    <text x="516" y="382" text-anchor="middle" fill="#0078d4" font-size="13" font-weight="700">Spoke 2</text>
    <text x="516" y="397" text-anchor="middle" fill="#777" font-size="10">DR</text>
    <text x="516" y="412" text-anchor="middle" fill="#aaa" font-size="9">West US 2</text>
    <text x="516" y="428" text-anchor="middle" fill="#bbb" font-size="8">CAE · DB · PEP</text>
  </g>
  <g filter="url(#shadowSm)">
    <rect x="568" y="360" width="88" height="76" rx="8" fill="#fff" stroke="#5c5c5c" stroke-width="1.2"/>
    <text x="612" y="382" text-anchor="middle" fill="#0078d4" font-size="13" font-weight="700">Spoke 3</text>
    <text x="612" y="397" text-anchor="middle" fill="#777" font-size="10">Edge</text>
    <text x="612" y="412" text-anchor="middle" fill="#aaa" font-size="9">Central US</text>
    <text x="612" y="428" text-anchor="middle" fill="#bbb" font-size="8">CAE · DB · PEP</text>
  </g>

  <!-- US mesh -->
  <line x1="420" y1="440" x2="612" y2="440" stroke="#0078d4" stroke-width="1" stroke-dasharray="4,3"/>
  <text x="510" y="456" text-anchor="middle" fill="#0078d4" font-size="9">mesh: all spokes peer directly</text>

  <!-- ===== APAC SPOKES ===== -->
  <g filter="url(#shadowSm)">
    <rect x="712" y="360" width="88" height="76" rx="8" fill="#fff" stroke="#5c5c5c" stroke-width="1.2"/>
    <text x="756" y="382" text-anchor="middle" fill="#0078d4" font-size="13" font-weight="700">Spoke 1</text>
    <text x="756" y="397" text-anchor="middle" fill="#777" font-size="10">Primary</text>
    <text x="756" y="412" text-anchor="middle" fill="#aaa" font-size="9">Australia East</text>
    <text x="756" y="428" text-anchor="middle" fill="#bbb" font-size="8">CAE · DB · PEP</text>
  </g>
  <g filter="url(#shadowSm)">
    <rect x="808" y="360" width="88" height="76" rx="8" fill="#fff" stroke="#5c5c5c" stroke-width="1.2"/>
    <text x="852" y="382" text-anchor="middle" fill="#0078d4" font-size="13" font-weight="700">Spoke 2</text>
    <text x="852" y="397" text-anchor="middle" fill="#777" font-size="10">DR</text>
    <text x="852" y="412" text-anchor="middle" fill="#aaa" font-size="9">AU Southeast</text>
    <text x="852" y="428" text-anchor="middle" fill="#bbb" font-size="8">CAE · DB · PEP</text>
  </g>
  <g filter="url(#shadowSm)">
    <rect x="904" y="360" width="88" height="76" rx="8" fill="#fff" stroke="#5c5c5c" stroke-width="1.2"/>
    <text x="948" y="382" text-anchor="middle" fill="#0078d4" font-size="13" font-weight="700">Spoke 3</text>
    <text x="948" y="397" text-anchor="middle" fill="#777" font-size="10">Edge</text>
    <text x="948" y="412" text-anchor="middle" fill="#aaa" font-size="9">SE Asia</text>
    <text x="948" y="428" text-anchor="middle" fill="#bbb" font-size="8">CAE · DB · PEP</text>
  </g>

  <!-- APAC mesh -->
  <line x1="756" y1="440" x2="948" y2="440" stroke="#0078d4" stroke-width="1" stroke-dasharray="4,3"/>
  <text x="846" y="456" text-anchor="middle" fill="#0078d4" font-size="9">mesh: all spokes peer directly</text>

  <!-- ===== SUBNET LAYOUT CALLOUT ===== -->
  <rect x="40" y="484" width="940" height="48" rx="8" fill="#f5f5f5" stroke="#ccc" stroke-width="1"/>
  <text x="510" y="504" text-anchor="middle" fill="#333" font-size="12" font-weight="700">Every spoke gets the same subnet layout. Empty subnets cost nothing</text>
  <text x="510" y="520" text-anchor="middle" fill="#666" font-size="11">Subnets 0-9: Container Apps · Subnets 10-19: Databases · Subnets 20-29: General (Private Endpoints, VMs, Key Vault)</text>

  <!-- ===== LEGEND ===== -->
  <rect x="40" y="550" width="940" height="36" rx="6" fill="#fff" stroke="#e0e0e0" stroke-width="1"/>
  <rect x="56" y="559" width="14" height="14" rx="3" fill="#0078d4"/>
  <text x="78" y="570" fill="#555" font-size="10">Hub VNet (infra only)</text>
  <rect x="210" y="559" width="14" height="14" rx="3" fill="#fff" stroke="#5c5c5c" stroke-width="1"/>
  <text x="232" y="570" fill="#555" font-size="10">Spoke VNet (workloads)</text>
  <line x1="390" y1="566" x2="420" y2="566" stroke="#0078d4" stroke-width="1" stroke-dasharray="4,3"/>
  <text x="428" y="570" fill="#555" font-size="10">Spoke mesh</text>
  <text x="510" y="570" fill="#e06000" font-size="10" font-weight="600">S2S active</text>
  <text x="600" y="570" fill="#d32f2f" font-size="13" font-weight="700">✕</text>
  <text x="618" y="570" fill="#555" font-size="10">No cross-zone connectivity (by design)</text>

  <!-- ===== KEY INSIGHT ===== -->
  <text x="510" y="660" text-anchor="middle" fill="#999" font-size="11" font-style="italic">All hubs use 10.0.0.0/16, same CIDRs, isolated by region, no overlap possible</text>
</svg>
